<mxfile host="app.diagrams.net" modified="2020-12-03T06:25:54.831Z" agent="5.0 (Macintosh; Intel Mac OS X 10_14_6) AppleWebKit/537.36 (KHTML, like Gecko) Chrome/86.0.4240.198 Safari/537.36" etag="dPs7cp3w-I_QMTB-CmGZ" version="13.10.6" type="github">
  <diagram id="prtHgNgQTEPvFCAcTncT" name="Page-1">
    <mxGraphModel dx="1722" dy="943" grid="1" gridSize="10" guides="1" tooltips="1" connect="1" arrows="1" fold="1" page="1" pageScale="1" pageWidth="827" pageHeight="1169" math="0" shadow="0">
      <root>
        <mxCell id="0" />
        <mxCell id="1" parent="0" />
        <mxCell id="dNxyNK7c78bLwvsdeMH5-11" value="HybridLyra" style="swimlane;html=1;startSize=640;horizontal=1;containerType=tree;glass=0;fillColor=#d5e8d4;align=center;verticalAlign=top;" parent="1" vertex="1">
          <mxGeometry x="50" y="80" width="710" height="640" as="geometry" />
        </mxCell>
        <mxCell id="sxkYlGfyIjd9sqKLB-yS-3" value="上层" style="rounded=0;whiteSpace=wrap;html=1;verticalAlign=top;align=left;" vertex="1" parent="dNxyNK7c78bLwvsdeMH5-11">
          <mxGeometry x="40" y="50" width="630" height="170" as="geometry" />
        </mxCell>
        <mxCell id="sxkYlGfyIjd9sqKLB-yS-5" value="中层" style="rounded=0;whiteSpace=wrap;html=1;align=left;verticalAlign=top;" vertex="1" parent="dNxyNK7c78bLwvsdeMH5-11">
          <mxGeometry x="40" y="250" width="630" height="170" as="geometry" />
        </mxCell>
        <mxCell id="sxkYlGfyIjd9sqKLB-yS-4" value="底层" style="rounded=0;whiteSpace=wrap;html=1;align=left;verticalAlign=top;" vertex="1" parent="dNxyNK7c78bLwvsdeMH5-11">
          <mxGeometry x="40" y="450" width="630" height="170" as="geometry" />
        </mxCell>
        <mxCell id="sxkYlGfyIjd9sqKLB-yS-6" value="自动化测试平台" style="rounded=1;whiteSpace=wrap;html=1;fillColor=#dae8fc;strokeColor=none;" vertex="1" parent="dNxyNK7c78bLwvsdeMH5-11">
          <mxGeometry x="70" y="105" width="120" height="60" as="geometry" />
        </mxCell>
        <mxCell id="sxkYlGfyIjd9sqKLB-yS-7" value="自动化巡检平台" style="rounded=1;whiteSpace=wrap;html=1;fillColor=#dae8fc;strokeColor=none;" vertex="1" parent="dNxyNK7c78bLwvsdeMH5-11">
          <mxGeometry x="220" y="105" width="120" height="60" as="geometry" />
        </mxCell>
        <mxCell id="sxkYlGfyIjd9sqKLB-yS-8" value="兼容性测试工具" style="rounded=1;whiteSpace=wrap;html=1;fillColor=#dae8fc;strokeColor=none;" vertex="1" parent="dNxyNK7c78bLwvsdeMH5-11">
          <mxGeometry x="374" y="105" width="120" height="60" as="geometry" />
        </mxCell>
        <mxCell id="sxkYlGfyIjd9sqKLB-yS-9" value="其他" style="rounded=1;whiteSpace=wrap;html=1;fillColor=#dae8fc;strokeColor=none;" vertex="1" parent="dNxyNK7c78bLwvsdeMH5-11">
          <mxGeometry x="520" y="105" width="120" height="60" as="geometry" />
        </mxCell>
        <mxCell id="sxkYlGfyIjd9sqKLB-yS-11" value="mini.dev" style="rounded=1;whiteSpace=wrap;html=1;fillColor=#dae8fc;strokeColor=none;" vertex="1" parent="dNxyNK7c78bLwvsdeMH5-11">
          <mxGeometry x="200" y="305" width="120" height="60" as="geometry" />
        </mxCell>
        <mxCell id="sxkYlGfyIjd9sqKLB-yS-12" value="Lite IDE" style="rounded=1;whiteSpace=wrap;html=1;fillColor=#dae8fc;strokeColor=none;" vertex="1" parent="dNxyNK7c78bLwvsdeMH5-11">
          <mxGeometry x="350" y="305" width="120" height="60" as="geometry" />
        </mxCell>
        <mxCell id="sxkYlGfyIjd9sqKLB-yS-13" value="Lyra Core" style="rounded=1;whiteSpace=wrap;html=1;fillColor=#dae8fc;strokeColor=none;" vertex="1" parent="dNxyNK7c78bLwvsdeMH5-11">
          <mxGeometry x="290" y="505" width="120" height="60" as="geometry" />
        </mxCell>
      </root>
    </mxGraphModel>
  </diagram>
</mxfile>
